<svg width="512" height="512" viewBox="0 0 512 512" fill="none" xmlns="http://www.w3.org/2000/svg">
<rect width="512" height="512" fill="url(#paint0_linear_1_2)"/>
<path d="M67.7539 324C58.1752 324 50.1498 323.416 43.6777 322.249C37.2056 320.951 31.8985 318.811 27.7564 315.827C23.7437 312.843 20.6371 308.821 18.4366 303.761C16.3655 298.572 14.9416 292.02 14.165 284.107C13.3883 276.193 13 266.657 13 255.5C13 244.343 13.3883 234.807 14.165 226.893C14.9416 218.98 16.3655 212.493 18.4366 207.433C20.6371 202.244 23.7437 198.157 27.7564 195.173C31.8985 192.189 37.2056 190.114 43.6777 188.946C50.1498 187.649 58.1752 187 67.7539 187C71.5077 187 75.3262 187.13 79.2095 187.389C83.2222 187.649 87.0407 188.038 90.6651 188.557C94.2895 188.946 97.3961 189.465 99.9849 190.114V207.628C96.7489 207.239 93.5128 206.914 90.2768 206.655C87.1702 206.266 84.1283 206.006 81.1511 205.876C78.174 205.747 75.5851 205.682 73.3846 205.682C66.2653 205.682 60.3757 205.941 55.7158 206.46C51.0559 206.979 47.3021 208.147 44.4544 209.963C41.7361 211.779 39.665 214.504 38.2412 218.136C36.9467 221.639 36.0406 226.439 35.5229 232.537C35.1346 238.634 34.9404 246.289 34.9404 255.5C34.9404 264.581 35.1346 272.236 35.5229 278.463C36.0406 284.561 36.9467 289.426 38.2412 293.058C39.665 296.561 41.7361 299.221 44.4544 301.037C47.3021 302.853 51.0559 304.021 55.7158 304.54C60.3757 305.059 66.2653 305.318 73.3846 305.318C77.6562 305.318 82.3161 305.124 87.3643 304.734C92.542 304.345 97.0078 303.891 100.762 303.372V321.276C97.9138 321.795 94.5484 322.249 90.6651 322.638C86.9113 323.027 83.028 323.351 79.0153 323.611C75.1321 323.87 71.3783 324 67.7539 324Z" fill="white"/>
<path d="M128.768 322.443V188.557H191.094C199.508 188.557 206.304 189.53 211.481 191.476C216.659 193.422 220.542 196.276 223.131 200.038C225.72 203.671 227.467 208.082 228.374 213.271C229.28 218.331 229.733 223.91 229.733 230.007C229.733 234.418 229.28 239.283 228.374 244.602C227.597 249.792 225.785 254.592 222.937 259.003C220.219 263.284 215.882 266.398 209.928 268.344L231.868 322.443H208.569L187.211 267.76L192.842 270.679C191.936 271.068 190.835 271.328 189.541 271.457C188.376 271.457 186.952 271.457 185.269 271.457H150.708V322.443H128.768ZM150.708 252.776H181.774C187.858 252.776 192.648 252.386 196.142 251.608C199.637 250.7 202.226 249.338 203.909 247.521C205.592 245.705 206.627 243.37 207.016 240.516C207.533 237.661 207.792 234.159 207.792 230.007C207.792 225.726 207.533 222.158 207.016 219.304C206.627 216.32 205.656 213.985 204.103 212.298C202.55 210.482 200.026 209.185 196.531 208.406C193.165 207.628 188.505 207.239 182.551 207.239H150.708V252.776Z" fill="white"/>
<path d="M311.031 324C301.84 324 294.139 323.481 287.925 322.443C281.712 321.276 276.664 319.394 272.781 316.8C269.027 314.205 266.114 310.637 264.043 306.097C262.102 301.426 260.743 295.588 259.966 288.582C259.319 281.577 258.995 273.144 258.995 263.284V188.557H280.936V270.095C280.936 277.62 281.194 283.717 281.712 288.388C282.23 293.058 283.395 296.626 285.207 299.091C287.019 301.556 289.996 303.242 294.139 304.151C298.281 304.929 303.911 305.318 311.031 305.318C318.279 305.318 323.91 304.929 327.923 304.151C331.936 303.242 334.848 301.556 336.66 299.091C338.602 296.626 339.767 293.058 340.155 288.388C340.673 283.717 340.932 277.62 340.932 270.095V188.557H362.872V263.284C362.872 273.144 362.484 281.577 361.707 288.582C361.06 295.588 359.766 301.426 357.824 306.097C355.882 310.637 352.97 314.205 349.087 316.8C345.333 319.394 340.349 321.276 334.136 322.443C327.923 323.481 320.221 324 311.031 324Z" fill="white"/>
<path d="M397.259 322.443V188.557H440.945C452.207 188.557 461.397 189.141 468.516 190.308C475.765 191.346 481.461 193.292 485.603 196.146C489.745 199 492.722 202.957 494.534 208.017C496.476 213.077 497.706 219.499 498.223 227.283C498.741 235.067 499 244.473 499 255.5C499 266.527 498.741 275.933 498.223 283.717C497.706 291.501 496.476 297.923 494.534 302.983C492.722 308.043 489.745 312 485.603 314.854C481.461 317.708 475.765 319.719 468.516 320.886C461.397 321.924 452.207 322.443 440.945 322.443H397.259ZM419.199 303.761H439.004C446.252 303.761 452.207 303.632 456.867 303.372C461.656 302.983 465.41 302.075 468.128 300.648C470.846 299.091 472.853 296.626 474.147 293.253C475.442 289.88 476.218 285.144 476.477 279.047C476.865 272.82 477.06 264.971 477.06 255.5C477.06 246.029 476.865 238.245 476.477 232.148C476.218 226.05 475.377 221.315 473.953 217.942C472.659 214.439 470.588 211.974 467.74 210.547C465.022 208.99 461.332 208.082 456.673 207.822C452.013 207.433 446.123 207.239 439.004 207.239H419.199V303.761Z" fill="white"/>
<defs>
<linearGradient id="paint0_linear_1_2" x1="512" y1="256" x2="0" y2="256" gradientUnits="userSpaceOnUse">
<stop stop-color="#193799"/>
<stop offset="0.504808" stop-color="#156DB9"/>
<stop offset="1" stop-color="#295BFF"/>
</linearGradient>
</defs>
</svg>
